<svg xmlns="http://www.w3.org/2000/svg" xmlns:xlink="http://www.w3.org/1999/xlink" width="500" zoomAndPan="magnify" viewBox="0 0 375 374.999991" height="500" preserveAspectRatio="xMidYMid meet" version="1.0"><defs><g/><clipPath id="b8687f2703"><path d="M 88.382812 58.40625 L 286.382812 58.40625 L 286.382812 230 L 88.382812 230 Z M 88.382812 58.40625 " clip-rule="nonzero"/></clipPath><clipPath id="21a386f935"><path d="M 91 63 L 280 63 L 280 230.15625 L 91 230.15625 Z M 91 63 " clip-rule="nonzero"/></clipPath><clipPath id="5873ea5981"><path d="M 94 68 L 274 68 L 274 230.15625 L 94 230.15625 Z M 94 68 " clip-rule="nonzero"/></clipPath><clipPath id="00fcc77dcb"><rect x="0" width="154" y="0" height="22"/></clipPath><clipPath id="b2396441d4"><rect x="0" width="264" y="0" height="56"/></clipPath></defs><rect x="-37.5" width="450" fill="#ffffff" y="-37.499999" height="449.999989" fill-opacity="1"/><rect x="-37.5" width="450" fill="#ffffff" y="-37.499999" height="449.999989" fill-opacity="1"/><g clip-path="url(#b8687f2703)"><path stroke-linecap="round" transform="matrix(0.146239, 0, 0, 0.146572, 169.822083, 135.549411)" fill="none" stroke-linejoin="round" d="M -552.216002 640.451103 L 120.002023 -523.835816 L 792.220048 640.451103 Z M -552.216002 640.451103 " stroke="#030303" stroke-width="5" stroke-opacity="1" stroke-miterlimit="4"/><path stroke-linecap="round" transform="matrix(0.146239, 0, 0, 0.146572, 169.822083, 135.549411)" fill="none" stroke-linejoin="round" d="M -552.216002 640.451103 L 120.002023 -523.835816 L 792.220048 640.451103 Z M -552.216002 640.451103 " stroke="#030303" stroke-width="5" stroke-opacity="1" stroke-miterlimit="4"/></g><g clip-path="url(#21a386f935)"><path stroke-linecap="round" transform="matrix(0.139572, 0.00439134, -0.00438136, 0.13989, 171.727112, 136.706943)" fill="none" stroke-linejoin="round" d="M -552.211633 640.452551 L 119.989983 -523.844843 L 792.214969 640.469846 Z M -552.211633 640.452551 " stroke="#030303" stroke-width="5" stroke-opacity="1" stroke-miterlimit="4"/></g><g clip-path="url(#5873ea5981)"><path stroke-linecap="round" transform="matrix(0.132747, 0.00837073, -0.00835171, 0.133049, 173.548822, 137.957597)" fill="none" stroke-linejoin="round" d="M -552.220734 640.454297 L 119.986413 -523.839902 L 792.21144 640.454501 Z M -552.220734 640.454297 " stroke="#030303" stroke-width="5" stroke-opacity="1" stroke-miterlimit="4"/></g><path stroke-linecap="round" transform="matrix(0.125778, 0.0119166, -0.0118896, 0.126065, 175.277952, 139.294575)" fill="none" stroke-linejoin="round" d="M -552.210902 640.456419 L 119.985402 -523.832717 L 792.197929 640.446079 Z M -552.210902 640.456419 " stroke="#030303" stroke-width="5" stroke-opacity="1" stroke-miterlimit="4"/><path stroke-linecap="round" transform="matrix(0.118688, 0.0150279, -0.0149937, 0.118958, 176.911927, 140.71477)" fill="none" stroke-linejoin="round" d="M -552.199918 640.470154 L 119.992009 -523.838895 L 792.221534 640.464205 Z M -552.199918 640.470154 " stroke="#030303" stroke-width="5" stroke-opacity="1" stroke-miterlimit="4"/><path stroke-linecap="round" transform="matrix(0.111492, 0.0176989, -0.0176587, 0.111746, 178.448285, 142.214902)" fill="none" stroke-linejoin="round" d="M -552.218166 640.47273 L 120.002855 -523.84765 L 792.217067 640.45463 Z M -552.218166 640.47273 " stroke="#030303" stroke-width="5" stroke-opacity="1" stroke-miterlimit="4"/><path stroke-linecap="round" transform="matrix(0.104206, 0.0199236, -0.0198783, 0.104443, 179.882659, 143.790415)" fill="none" stroke-linejoin="round" d="M -552.196847 640.453482 L 120.001613 -523.849499 L 792.197451 640.453182 Z M -552.196847 640.453482 " stroke="#030303" stroke-width="5" stroke-opacity="1" stroke-miterlimit="4"/><path stroke-linecap="round" transform="matrix(0.0968498, 0.021696, -0.0216467, 0.0970704, 181.211419, 145.437706)" fill="none" stroke-linejoin="round" d="M -552.203198 640.441295 L 119.989763 -523.84233 L 792.226062 640.473161 Z M -552.203198 640.441295 " stroke="#030303" stroke-width="5" stroke-opacity="1" stroke-miterlimit="4"/><path stroke-linecap="round" transform="matrix(0.0894417, 0.023017, -0.0229647, 0.0896454, 182.433713, 147.15415)" fill="none" stroke-linejoin="round" d="M -552.198528 640.469923 L 119.988868 -523.829387 L 792.21208 640.480779 Z M -552.198528 640.469923 " stroke="#030303" stroke-width="5" stroke-opacity="1" stroke-miterlimit="4"/><path stroke-linecap="round" transform="matrix(0.0819965, 0.0238842, -0.02383, 0.0821833, 183.547946, 148.937157)" fill="none" stroke-linejoin="round" d="M -552.19639 640.451644 L 120.010426 -523.824113 L 792.225533 640.437947 Z M -552.19639 640.451644 " stroke="#030303" stroke-width="5" stroke-opacity="1" stroke-miterlimit="4"/><path stroke-linecap="round" transform="matrix(0.0745321, 0.0242736, -0.0242184, 0.0747019, 184.538841, 150.7746)" fill="none" stroke-linejoin="round" d="M -552.200277 640.467029 L 119.980816 -523.845677 L 792.22331 640.451799 Z M -552.200277 640.467029 " stroke="#030303" stroke-width="5" stroke-opacity="1" stroke-miterlimit="4"/><path stroke-linecap="round" transform="matrix(0.0670632, 0.0241992, -0.0241442, 0.067216, 185.415638, 152.672128)" fill="none" stroke-linejoin="round" d="M -552.221472 640.48161 L 119.986787 -523.81209 L 792.225031 640.432184 Z M -552.221472 640.48161 " stroke="#030303" stroke-width="5" stroke-opacity="1" stroke-miterlimit="4"/><path stroke-linecap="round" transform="matrix(0.0596065, 0.0236536, -0.0235999, 0.0597422, 186.172931, 154.622699)" fill="none" stroke-linejoin="round" d="M -552.181585 640.461727 L 119.979233 -523.860217 L 792.192663 640.486105 Z M -552.181585 640.461727 " stroke="#030303" stroke-width="5" stroke-opacity="1" stroke-miterlimit="4"/><path stroke-linecap="round" transform="matrix(0.0521738, 0.0226293, -0.0225779, 0.0522926, 186.807765, 156.626534)" fill="none" stroke-linejoin="round" d="M -552.238502 640.459856 L 119.980213 -523.828651 L 792.215451 640.49254 Z M -552.238502 640.459856 " stroke="#030303" stroke-width="5" stroke-opacity="1" stroke-miterlimit="4"/><path stroke-linecap="round" transform="matrix(0.0447762, 0.0211181, -0.0210701, 0.0448782, 187.315216, 158.679818)" fill="none" stroke-linejoin="round" d="M -552.222393 640.48425 L 119.999581 -523.881478 L 792.211777 640.456766 Z M -552.222393 640.48425 " stroke="#030303" stroke-width="5" stroke-opacity="1" stroke-miterlimit="4"/><path stroke-linecap="round" transform="matrix(0.0374183, 0.019109, -0.0190656, 0.0375035, 187.693029, 160.780698)" fill="none" stroke-linejoin="round" d="M -552.214375 640.410686 L 120.047417 -523.817273 L 792.189334 640.442447 Z M -552.214375 640.410686 " stroke="#030303" stroke-width="5" stroke-opacity="1" stroke-miterlimit="4"/><path stroke-linecap="round" transform="matrix(0.0301064, 0.0165888, -0.0165511, 0.030175, 187.935067, 162.933081)" fill="none" stroke-linejoin="round" d="M -552.188797 640.422933 L 120.024014 -523.843178 L 792.188104 640.52399 Z M -552.188797 640.422933 " stroke="#030303" stroke-width="5" stroke-opacity="1" stroke-miterlimit="4"/><path stroke-linecap="round" transform="matrix(0.022825, 0.0135301, -0.0134993, 0.022877, 188.037647, 165.142386)" fill="none" stroke-linejoin="round" d="M -552.135867 640.480419 L 119.967756 -523.858008 L 792.141795 640.449478 Z M -552.135867 640.480419 " stroke="#030303" stroke-width="5" stroke-opacity="1" stroke-miterlimit="4"/><path stroke-linecap="round" transform="matrix(0.0155438, 0.00988762, -0.00986515, 0.0155792, 187.994831, 167.419719)" fill="none" stroke-linejoin="round" d="M -552.183931 640.441713 L 119.979441 -523.821599 L 792.280482 640.404225 Z M -552.183931 640.441713 " stroke="#030303" stroke-width="5" stroke-opacity="1" stroke-miterlimit="4"/><path stroke-linecap="round" transform="matrix(0.00816015, 0.00555803, -0.00554539, 0.00817874, 187.7905, 169.807782)" fill="none" stroke-linejoin="round" d="M -552.086327 640.354229 L 120.155126 -523.821571 L 792.191516 640.491754 Z M -552.086327 640.354229 " stroke="#030303" stroke-width="5" stroke-opacity="1" stroke-miterlimit="4"/><g transform="matrix(1, 0, 0, 1, 115, 293)"><g clip-path="url(#00fcc77dcb)"><g fill="#ffffff" fill-opacity="1"><g transform="translate(1.066067, 17.776936)"><g><path d="M 1.265625 -5.75 C 1.265625 -6.820312 1.425781 -7.734375 1.75 -8.484375 C 2.082031 -9.242188 2.570312 -9.863281 3.21875 -10.34375 C 3.863281 -10.820312 4.671875 -11.171875 5.640625 -11.390625 C 6.609375 -11.609375 7.734375 -11.71875 9.015625 -11.71875 C 9.910156 -11.71875 10.773438 -11.632812 11.609375 -11.46875 C 12.453125 -11.3125 13.304688 -11.050781 14.171875 -10.6875 C 14.285156 -10.644531 14.363281 -10.585938 14.40625 -10.515625 C 14.457031 -10.441406 14.484375 -10.367188 14.484375 -10.296875 C 14.484375 -10.210938 14.453125 -10.140625 14.390625 -10.078125 C 14.328125 -10.023438 14.25 -10 14.15625 -10 C 14.125 -10 14.054688 -10.015625 13.953125 -10.046875 C 13.160156 -10.378906 12.34375 -10.625 11.5 -10.78125 C 10.65625 -10.945312 9.828125 -11.03125 9.015625 -11.03125 C 7.785156 -11.03125 6.738281 -10.925781 5.875 -10.71875 C 5.007812 -10.519531 4.296875 -10.207031 3.734375 -9.78125 C 3.179688 -9.351562 2.773438 -8.804688 2.515625 -8.140625 C 2.265625 -7.472656 2.140625 -6.675781 2.140625 -5.75 C 2.140625 -4.820312 2.265625 -4.023438 2.515625 -3.359375 C 2.773438 -2.691406 3.179688 -2.144531 3.734375 -1.71875 C 4.296875 -1.289062 5.007812 -0.972656 5.875 -0.765625 C 6.738281 -0.566406 7.785156 -0.46875 9.015625 -0.46875 C 9.828125 -0.46875 10.65625 -0.546875 11.5 -0.703125 C 12.34375 -0.867188 13.160156 -1.117188 13.953125 -1.453125 C 14.003906 -1.484375 14.066406 -1.5 14.140625 -1.5 C 14.242188 -1.5 14.328125 -1.46875 14.390625 -1.40625 C 14.460938 -1.34375 14.5 -1.269531 14.5 -1.1875 C 14.5 -1.113281 14.472656 -1.039062 14.421875 -0.96875 C 14.367188 -0.90625 14.285156 -0.851562 14.171875 -0.8125 C 13.296875 -0.445312 12.441406 -0.179688 11.609375 -0.015625 C 10.773438 0.140625 9.910156 0.21875 9.015625 0.21875 C 7.734375 0.21875 6.609375 0.109375 5.640625 -0.109375 C 4.671875 -0.328125 3.863281 -0.675781 3.21875 -1.15625 C 2.570312 -1.632812 2.082031 -2.25 1.75 -3 C 1.425781 -3.757812 1.265625 -4.675781 1.265625 -5.75 Z M 1.265625 -5.75 "/></g></g></g><g fill="#ffffff" fill-opacity="1"><g transform="translate(25.44372, 17.776936)"><g><path d="M 6.421875 -10.96875 C 6.523438 -11.164062 6.609375 -11.300781 6.671875 -11.375 C 6.734375 -11.457031 6.828125 -11.5 6.953125 -11.5 C 7.054688 -11.5 7.140625 -11.460938 7.203125 -11.390625 C 7.273438 -11.316406 7.375 -11.175781 7.5 -10.96875 L 13.1875 -0.6875 C 13.269531 -0.550781 13.3125 -0.414062 13.3125 -0.28125 C 13.3125 -0.164062 13.273438 -0.0703125 13.203125 0 C 13.128906 0.0703125 13.046875 0.109375 12.953125 0.109375 C 12.859375 0.109375 12.765625 0.0703125 12.671875 0 C 12.578125 -0.0625 12.484375 -0.175781 12.390625 -0.34375 L 10.625 -3.53125 L 3.28125 -3.53125 L 1.5 -0.3125 C 1.425781 -0.164062 1.335938 -0.0625 1.234375 0 C 1.140625 0.0703125 1.046875 0.109375 0.953125 0.109375 C 0.835938 0.109375 0.75 0.0664062 0.6875 -0.015625 C 0.632812 -0.0976562 0.609375 -0.207031 0.609375 -0.34375 C 0.609375 -0.40625 0.617188 -0.460938 0.640625 -0.515625 C 0.671875 -0.566406 0.703125 -0.628906 0.734375 -0.703125 Z M 10.328125 -4.140625 L 6.953125 -10.296875 L 3.578125 -4.140625 Z M 10.328125 -4.140625 "/></g></g></g><g fill="#ffffff" fill-opacity="1"><g transform="translate(48.376263, 17.776936)"><g><path d="M 11.90625 -7.40625 C 11.90625 -6.78125 11.828125 -6.25 11.671875 -5.8125 C 11.523438 -5.382812 11.3125 -5.03125 11.03125 -4.75 C 10.757812 -4.46875 10.425781 -4.25 10.03125 -4.09375 C 9.644531 -3.9375 9.21875 -3.820312 8.75 -3.75 C 8.28125 -3.675781 7.78125 -3.628906 7.25 -3.609375 C 6.71875 -3.597656 6.171875 -3.59375 5.609375 -3.59375 L 2.53125 -3.59375 L 2.53125 -0.78125 C 2.53125 -0.582031 2.503906 -0.398438 2.453125 -0.234375 C 2.398438 -0.078125 2.289062 0 2.125 0 C 1.925781 0 1.796875 -0.078125 1.734375 -0.234375 C 1.679688 -0.390625 1.65625 -0.570312 1.65625 -0.78125 L 1.65625 -11.125 C 1.65625 -11.21875 1.660156 -11.289062 1.671875 -11.34375 C 1.691406 -11.394531 1.722656 -11.429688 1.765625 -11.453125 C 1.804688 -11.472656 1.859375 -11.484375 1.921875 -11.484375 C 1.984375 -11.492188 2.066406 -11.5 2.171875 -11.5 L 5.609375 -11.5 C 6.234375 -11.5 6.820312 -11.476562 7.375 -11.4375 C 7.925781 -11.40625 8.4375 -11.335938 8.90625 -11.234375 C 9.375 -11.128906 9.789062 -10.984375 10.15625 -10.796875 C 10.53125 -10.609375 10.847656 -10.359375 11.109375 -10.046875 C 11.367188 -9.742188 11.566406 -9.375 11.703125 -8.9375 C 11.835938 -8.507812 11.90625 -8 11.90625 -7.40625 Z M 11.03125 -7.40625 C 11.03125 -8.113281 10.921875 -8.691406 10.703125 -9.140625 C 10.492188 -9.585938 10.164062 -9.9375 9.71875 -10.1875 C 9.269531 -10.4375 8.707031 -10.601562 8.03125 -10.6875 C 7.351562 -10.769531 6.546875 -10.8125 5.609375 -10.8125 L 2.53125 -10.8125 L 2.53125 -4.234375 L 5.609375 -4.234375 C 6.546875 -4.234375 7.351562 -4.257812 8.03125 -4.3125 C 8.71875 -4.375 9.28125 -4.515625 9.71875 -4.734375 C 10.164062 -4.953125 10.492188 -5.269531 10.703125 -5.6875 C 10.921875 -6.101562 11.03125 -6.675781 11.03125 -7.40625 Z M 11.03125 -7.40625 "/></g></g></g><g fill="#ffffff" fill-opacity="1"><g transform="translate(69.32691, 17.776936)"><g><path d="M 4.875 -10.8125 L 1.203125 -10.8125 C 1.109375 -10.8125 1.015625 -10.8125 0.921875 -10.8125 C 0.835938 -10.8125 0.757812 -10.820312 0.6875 -10.84375 C 0.613281 -10.863281 0.550781 -10.894531 0.5 -10.9375 C 0.457031 -10.988281 0.4375 -11.054688 0.4375 -11.140625 C 0.4375 -11.242188 0.460938 -11.316406 0.515625 -11.359375 C 0.566406 -11.410156 0.628906 -11.445312 0.703125 -11.46875 C 0.773438 -11.488281 0.851562 -11.5 0.9375 -11.5 C 1.03125 -11.5 1.117188 -11.5 1.203125 -11.5 L 9.4375 -11.5 C 9.539062 -11.5 9.640625 -11.5 9.734375 -11.5 C 9.828125 -11.5 9.90625 -11.488281 9.96875 -11.46875 C 10.03125 -11.445312 10.082031 -11.410156 10.125 -11.359375 C 10.164062 -11.316406 10.1875 -11.25 10.1875 -11.15625 C 10.1875 -11.0625 10.164062 -10.988281 10.125 -10.9375 C 10.082031 -10.894531 10.03125 -10.863281 9.96875 -10.84375 C 9.90625 -10.820312 9.828125 -10.8125 9.734375 -10.8125 C 9.640625 -10.8125 9.539062 -10.8125 9.4375 -10.8125 L 5.765625 -10.8125 L 5.765625 -0.6875 L 9.4375 -0.6875 C 9.539062 -0.6875 9.640625 -0.6875 9.734375 -0.6875 C 9.828125 -0.6875 9.90625 -0.675781 9.96875 -0.65625 C 10.03125 -0.632812 10.082031 -0.597656 10.125 -0.546875 C 10.164062 -0.492188 10.1875 -0.425781 10.1875 -0.34375 C 10.1875 -0.25 10.164062 -0.175781 10.125 -0.125 C 10.082031 -0.0820312 10.03125 -0.0507812 9.96875 -0.03125 C 9.90625 -0.0078125 9.828125 0 9.734375 0 C 9.640625 0 9.539062 0 9.4375 0 L 1.203125 0 C 1.117188 0 1.03125 0 0.9375 0 C 0.851562 0 0.773438 -0.0078125 0.703125 -0.03125 C 0.628906 -0.0507812 0.566406 -0.0820312 0.515625 -0.125 C 0.460938 -0.175781 0.4375 -0.253906 0.4375 -0.359375 C 0.4375 -0.441406 0.457031 -0.503906 0.5 -0.546875 C 0.550781 -0.597656 0.613281 -0.632812 0.6875 -0.65625 C 0.757812 -0.675781 0.835938 -0.6875 0.921875 -0.6875 C 1.015625 -0.6875 1.109375 -0.6875 1.203125 -0.6875 L 4.875 -0.6875 Z M 4.875 -10.8125 "/></g></g></g><g fill="#ffffff" fill-opacity="1"><g transform="translate(88.976986, 17.776936)"><g><path d="M 13.671875 -11.125 C 13.671875 -10.976562 13.625 -10.890625 13.53125 -10.859375 C 13.4375 -10.828125 13.3125 -10.8125 13.15625 -10.8125 L 7.390625 -10.8125 L 7.390625 -0.765625 C 7.390625 -0.660156 7.382812 -0.5625 7.375 -0.46875 C 7.375 -0.382812 7.359375 -0.304688 7.328125 -0.234375 C 7.296875 -0.160156 7.25 -0.101562 7.1875 -0.0625 C 7.132812 -0.0195312 7.054688 0 6.953125 0 C 6.773438 0 6.65625 -0.078125 6.59375 -0.234375 C 6.539062 -0.390625 6.515625 -0.566406 6.515625 -0.765625 L 6.515625 -10.8125 L 0.734375 -10.8125 C 0.578125 -10.8125 0.445312 -10.828125 0.34375 -10.859375 C 0.238281 -10.890625 0.1875 -10.976562 0.1875 -11.125 C 0.1875 -11.21875 0.207031 -11.289062 0.25 -11.34375 C 0.300781 -11.394531 0.363281 -11.429688 0.4375 -11.453125 C 0.507812 -11.472656 0.59375 -11.484375 0.6875 -11.484375 C 0.78125 -11.492188 0.867188 -11.5 0.953125 -11.5 L 12.9375 -11.5 C 13.039062 -11.5 13.132812 -11.492188 13.21875 -11.484375 C 13.3125 -11.484375 13.390625 -11.472656 13.453125 -11.453125 C 13.515625 -11.429688 13.566406 -11.394531 13.609375 -11.34375 C 13.648438 -11.289062 13.671875 -11.21875 13.671875 -11.125 Z M 13.671875 -11.125 "/></g></g></g><g fill="#ffffff" fill-opacity="1"><g transform="translate(109.142931, 17.776936)"><g><path d="M 6.421875 -10.96875 C 6.523438 -11.164062 6.609375 -11.300781 6.671875 -11.375 C 6.734375 -11.457031 6.828125 -11.5 6.953125 -11.5 C 7.054688 -11.5 7.140625 -11.460938 7.203125 -11.390625 C 7.273438 -11.316406 7.375 -11.175781 7.5 -10.96875 L 13.1875 -0.6875 C 13.269531 -0.550781 13.3125 -0.414062 13.3125 -0.28125 C 13.3125 -0.164062 13.273438 -0.0703125 13.203125 0 C 13.128906 0.0703125 13.046875 0.109375 12.953125 0.109375 C 12.859375 0.109375 12.765625 0.0703125 12.671875 0 C 12.578125 -0.0625 12.484375 -0.175781 12.390625 -0.34375 L 10.625 -3.53125 L 3.28125 -3.53125 L 1.5 -0.3125 C 1.425781 -0.164062 1.335938 -0.0625 1.234375 0 C 1.140625 0.0703125 1.046875 0.109375 0.953125 0.109375 C 0.835938 0.109375 0.75 0.0664062 0.6875 -0.015625 C 0.632812 -0.0976562 0.609375 -0.207031 0.609375 -0.34375 C 0.609375 -0.40625 0.617188 -0.460938 0.640625 -0.515625 C 0.671875 -0.566406 0.703125 -0.628906 0.734375 -0.703125 Z M 10.328125 -4.140625 L 6.953125 -10.296875 L 3.578125 -4.140625 Z M 10.328125 -4.140625 "/></g></g></g><g fill="#ffffff" fill-opacity="1"><g transform="translate(132.075474, 17.776936)"><g><path d="M 2.078125 0 C 1.972656 0 1.890625 0 1.828125 0 C 1.773438 -0.0078125 1.734375 -0.0234375 1.703125 -0.046875 C 1.671875 -0.078125 1.65625 -0.117188 1.65625 -0.171875 C 1.65625 -0.222656 1.65625 -0.289062 1.65625 -0.375 L 1.65625 -10.828125 C 1.65625 -11.003906 1.6875 -11.160156 1.75 -11.296875 C 1.8125 -11.429688 1.941406 -11.5 2.140625 -11.5 C 2.304688 -11.5 2.410156 -11.425781 2.453125 -11.28125 C 2.503906 -11.144531 2.53125 -10.992188 2.53125 -10.828125 L 2.53125 -0.6875 L 11.390625 -0.6875 C 11.535156 -0.6875 11.640625 -0.648438 11.703125 -0.578125 C 11.773438 -0.503906 11.8125 -0.425781 11.8125 -0.34375 C 11.8125 -0.25 11.773438 -0.164062 11.703125 -0.09375 C 11.640625 -0.03125 11.535156 0 11.390625 0 Z M 2.078125 0 "/></g></g></g></g></g><g transform="matrix(1, 0, 0, 1, 69, 229)"><g clip-path="url(#b2396441d4)"><g fill="#ffffff" fill-opacity="1"><g transform="translate(0.535939, 45.871776)"><g><path d="M 32.890625 -5.828125 C 33.441406 -4.410156 33.929688 -3.304688 34.359375 -2.515625 C 34.796875 -1.734375 35.25 -1.171875 35.71875 -0.828125 C 36.195312 -0.492188 36.78125 -0.28125 37.46875 -0.1875 L 37.46875 0 L 22.84375 0 L 22.84375 -0.1875 C 23.925781 -0.28125 24.820312 -0.488281 25.53125 -0.8125 C 26.238281 -1.132812 26.6875 -1.664062 26.875 -2.40625 C 27.0625 -3.144531 26.875 -4.191406 26.3125 -5.546875 L 25.390625 -7.859375 L 7.71875 -7.859375 L 6.703125 -5.546875 C 6.117188 -4.222656 5.90625 -3.207031 6.0625 -2.5 C 6.21875 -1.789062 6.601562 -1.273438 7.21875 -0.953125 C 7.832031 -0.628906 8.570312 -0.375 9.4375 -0.1875 L 9.4375 0 L 0.921875 0 L 0.921875 -0.1875 C 1.566406 -0.375 2.144531 -0.632812 2.65625 -0.96875 C 3.164062 -1.3125 3.660156 -1.835938 4.140625 -2.546875 C 4.617188 -3.253906 5.132812 -4.269531 5.6875 -5.59375 L 15.8125 -28.953125 L 15.71875 -30.296875 L 16.609375 -30.796875 L 22.0625 -33.71875 C 22.0625 -33.59375 22.113281 -33.320312 22.21875 -32.90625 C 22.332031 -32.488281 22.632812 -31.679688 23.125 -30.484375 Z M 8.046875 -8.6875 L 25.0625 -8.6875 L 16.875 -29.09375 Z M 8.046875 -8.6875 "/></g></g></g><g fill="#ffffff" fill-opacity="1"><g transform="translate(66.162853, 45.871776)"><g><path d="M 41.109375 -32.140625 C 40.160156 -32.015625 39.335938 -31.789062 38.640625 -31.46875 C 37.941406 -31.144531 37.59375 -30.566406 37.59375 -29.734375 L 37.59375 -2.640625 C 37.59375 -1.804688 37.941406 -1.226562 38.640625 -0.90625 C 39.335938 -0.582031 40.160156 -0.359375 41.109375 -0.234375 L 41.109375 0 L 27.75 0 L 27.75 -0.234375 C 28.707031 -0.359375 29.53125 -0.582031 30.21875 -0.90625 C 30.914062 -1.226562 31.265625 -1.804688 31.265625 -2.640625 L 31.265625 -29.96875 L 18.359375 0.515625 L 5.140625 -25.90625 L 5.140625 -8.1875 C 5.140625 -6.09375 5.300781 -4.484375 5.625 -3.359375 C 5.945312 -2.234375 6.375 -1.453125 6.90625 -1.015625 C 7.445312 -0.585938 8.03125 -0.328125 8.65625 -0.234375 L 8.65625 0 L 0.6875 0 L 0.6875 -0.234375 C 1.34375 -0.328125 1.929688 -0.507812 2.453125 -0.78125 C 2.972656 -1.0625 3.394531 -1.6875 3.71875 -2.65625 C 4.039062 -3.625 4.203125 -5.160156 4.203125 -7.265625 L 4.203125 -27.75 C 3.773438 -28.644531 3.289062 -29.453125 2.75 -30.171875 C 2.207031 -30.898438 1.445312 -31.632812 0.46875 -32.375 L 8.609375 -32.375 L 20.90625 -7.8125 L 31.265625 -32.375 L 41.109375 -32.375 Z M 41.109375 -32.140625 "/></g></g></g><g fill="#ffffff" fill-opacity="1"><g transform="translate(135.211844, 45.871776)"><g><path d="M 27.75 -6.109375 C 28.675781 -4.867188 29.5 -3.882812 30.21875 -3.15625 C 30.945312 -2.4375 31.664062 -1.851562 32.375 -1.40625 C 33.082031 -0.957031 33.835938 -0.535156 34.640625 -0.140625 L 34.640625 0 L 24.65625 0 L 24.65625 -0.78125 L 15.953125 -13.046875 L 10.546875 -13.046875 L 10.546875 -2.640625 C 10.546875 -1.804688 10.890625 -1.226562 11.578125 -0.90625 C 12.273438 -0.582031 13.101562 -0.359375 14.0625 -0.234375 L 14.0625 0 L 0.6875 0 L 0.6875 -0.234375 C 1.644531 -0.359375 2.46875 -0.582031 3.15625 -0.90625 C 3.851562 -1.226562 4.203125 -1.804688 4.203125 -2.640625 L 4.203125 -29.734375 C 4.203125 -30.566406 3.851562 -31.144531 3.15625 -31.46875 C 2.46875 -31.789062 1.644531 -32.015625 0.6875 -32.140625 L 0.6875 -32.375 L 18.125 -32.375 C 22.257812 -32.375 25.46875 -31.671875 27.75 -30.265625 C 30.03125 -28.867188 31.171875 -26.660156 31.171875 -23.640625 C 31.171875 -21.328125 30.367188 -19.296875 28.765625 -17.546875 C 27.160156 -15.804688 24.957031 -14.550781 22.15625 -13.78125 Z M 10.546875 -31.546875 L 10.546875 -14.84375 C 13.015625 -14.132812 15.46875 -13.78125 17.90625 -13.78125 C 19.46875 -13.78125 20.765625 -13.992188 21.796875 -14.421875 C 22.835938 -14.859375 23.617188 -15.65625 24.140625 -16.8125 C 24.660156 -17.96875 24.921875 -19.609375 24.921875 -21.734375 C 24.921875 -22.972656 24.804688 -24.171875 24.578125 -25.328125 C 24.347656 -26.484375 23.910156 -27.53125 23.265625 -28.46875 C 22.617188 -29.40625 21.675781 -30.148438 20.4375 -30.703125 C 19.207031 -31.265625 17.601562 -31.546875 15.625 -31.546875 Z M 10.546875 -31.546875 "/></g></g></g><g fill="#ffffff" fill-opacity="1"><g transform="translate(196.630513, 45.871776)"><g><path d="M 19.9375 -33.015625 C 22.4375 -33.015625 24.765625 -32.628906 26.921875 -31.859375 C 29.078125 -31.085938 30.960938 -29.96875 32.578125 -28.5 C 34.203125 -27.039062 35.46875 -25.269531 36.375 -23.1875 C 37.28125 -21.113281 37.734375 -18.78125 37.734375 -16.1875 C 37.734375 -13.59375 37.28125 -11.253906 36.375 -9.171875 C 35.46875 -7.097656 34.203125 -5.328125 32.578125 -3.859375 C 30.960938 -2.398438 29.078125 -1.285156 26.921875 -0.515625 C 24.765625 0.253906 22.4375 0.640625 19.9375 0.640625 C 17.40625 0.640625 15.0625 0.253906 12.90625 -0.515625 C 10.75 -1.285156 8.859375 -2.398438 7.234375 -3.859375 C 5.617188 -5.328125 4.351562 -7.097656 3.4375 -9.171875 C 2.53125 -11.253906 2.078125 -13.59375 2.078125 -16.1875 C 2.078125 -18.78125 2.53125 -21.113281 3.4375 -23.1875 C 4.351562 -25.269531 5.617188 -27.039062 7.234375 -28.5 C 8.859375 -29.96875 10.75 -31.085938 12.90625 -31.859375 C 15.0625 -32.628906 17.40625 -33.015625 19.9375 -33.015625 Z M 21.875 -0.1875 C 23.726562 -0.1875 25.335938 -0.734375 26.703125 -1.828125 C 28.078125 -2.921875 29.140625 -4.4375 29.890625 -6.375 C 30.648438 -8.320312 31.03125 -10.578125 31.03125 -13.140625 C 31.03125 -15.453125 30.710938 -17.734375 30.078125 -19.984375 C 29.453125 -22.234375 28.550781 -24.273438 27.375 -26.109375 C 26.207031 -27.941406 24.820312 -29.410156 23.21875 -30.515625 C 21.613281 -31.628906 19.851562 -32.1875 17.9375 -32.1875 C 16.09375 -32.1875 14.484375 -31.644531 13.109375 -30.5625 C 11.734375 -29.488281 10.664062 -27.976562 9.90625 -26.03125 C 9.15625 -24.09375 8.78125 -21.84375 8.78125 -19.28125 C 8.78125 -16.96875 9.097656 -14.675781 9.734375 -12.40625 C 10.367188 -10.144531 11.269531 -8.097656 12.4375 -6.265625 C 13.613281 -4.429688 15.003906 -2.957031 16.609375 -1.84375 C 18.210938 -0.738281 19.96875 -0.1875 21.875 -0.1875 Z M 21.875 -0.1875 "/></g></g></g></g></g></svg>